<?xml version="1.0" standalone="no"?>
<!DOCTYPE svg PUBLIC "-//W3C//DTD SVG 20010904//EN"
 "http://www.w3.org/TR/2001/REC-SVG-20010904/DTD/svg10.dtd">
<svg version="1.0" xmlns="http://www.w3.org/2000/svg"
 width="640.000000pt" height="640.000000pt" viewBox="0 0 640.000000 640.000000"
 preserveAspectRatio="xMidYMid meet">
<metadata>
Created by potrace 1.11, written by Peter Selinger 2001-2013
</metadata>
<g transform="translate(0.000000,640.000000) scale(0.100000,-0.100000)"
fill="#000000" stroke="none">
<path d="M4569 5565 c-2 -2 -74 -4 -159 -5 -161 -2 -185 -6 -385 -67 -70 -21
-199 -72 -375 -148 -110 -47 -147 -57 -245 -62 -102 -5 -179 5 -340 47 -38 10
-129 28 -202 39 -119 19 -148 20 -310 12 -98 -6 -195 -15 -217 -21 -21 -7 -46
-13 -55 -15 -38 -8 -229 -77 -266 -97 -197 -103 -513 -359 -659 -533 -32 -38
-62 -72 -66 -75 -16 -10 -113 -137 -138 -180 -14 -25 -45 -77 -68 -116 -54
-91 -147 -277 -164 -329 -7 -22 -16 -44 -20 -50 -36 -48 -118 -374 -98 -386 6
-4 43 -10 82 -14 39 -3 107 -12 151 -20 44 -8 114 -19 155 -26 41 -6 107 -22
145 -35 39 -13 91 -26 115 -29 25 -4 65 -13 90 -20 25 -7 81 -23 125 -35 212
-61 503 -189 681 -302 34 -21 64 -38 68 -38 12 0 228 -129 286 -171 30 -22 96
-65 145 -96 50 -31 135 -89 190 -130 55 -41 132 -93 170 -115 39 -22 83 -49
98 -60 34 -23 273 -158 281 -158 4 0 76 -34 161 -75 85 -41 192 -87 238 -101
45 -14 111 -37 147 -49 36 -13 82 -26 103 -30 21 -3 66 -15 100 -26 114 -36
241 -52 377 -45 254 12 391 55 725 224 48 25 129 99 206 189 122 144 198 318
218 504 15 143 -4 343 -44 453 l-23 62 23 50 c55 119 69 182 69 319 -1 143
-34 356 -79 495 -72 222 -91 273 -132 355 -77 154 -150 280 -172 295 -4 3 -18
21 -31 40 -58 84 -113 138 -235 229 -286 216 -445 302 -636 345 -14 3 -28 4
-30 1z m-20 -125 c147 -35 152 -51 11 -38 -173 16 -442 -20 -653 -89 -60 -19
-111 -32 -114 -29 -7 7 139 79 227 111 181 66 371 82 529 45z m-1724 -141 c82
-11 271 -73 368 -119 37 -18 66 -34 64 -36 -2 -2 -26 3 -53 11 -176 56 -447
111 -596 122 -48 3 -88 10 -88 14 0 4 21 11 48 14 26 3 54 8 62 9 19 4 105 -3
195 -15z m-381 -18 c9 -15 -23 -36 -36 -23 -5 5 -7 15 -4 21 9 13 33 14 40 2z
m1710 -761 c-6 -5 -24 21 -24 34 0 6 6 1 14 -10 8 -10 12 -21 10 -24z m-101
-30 c133 -22 139 -24 153 -52 37 -71 56 -159 69 -308 7 -85 14 -153 15 -150 1
3 4 54 6 113 2 99 6 114 34 170 48 92 77 120 120 114 68 -9 352 -151 368 -185
5 -9 7 -37 5 -62 -2 -24 -1 -55 2 -68 10 -39 25 -14 25 42 0 29 3 55 6 59 8 8
75 -34 144 -91 72 -59 190 -181 190 -196 0 -22 -71 -96 -111 -116 -46 -24 -65
-25 -103 -5 -15 8 -34 15 -41 15 -6 0 -38 23 -69 50 -31 28 -58 50 -59 50 -2
0 -27 -22 -56 -50 -72 -67 -105 -76 -229 -61 -104 13 -170 38 -201 77 -10 13
-22 24 -26 24 -4 0 -32 -22 -62 -50 -30 -27 -83 -64 -119 -81 -58 -27 -80 -32
-187 -38 -67 -4 -176 -6 -243 -5 -133 2 -147 7 -254 82 l-55 39 -70 -44 c-84
-51 -138 -63 -280 -57 -339 12 -387 21 -451 77 -24 21 -56 59 -70 83 -14 24
-28 44 -30 44 -3 0 -35 -20 -72 -45 -122 -83 -287 -111 -359 -62 -47 32 -73
105 -73 208 l0 80 94 44 c143 67 337 145 361 145 44 0 85 -66 79 -129 -2 -28
0 -41 6 -35 5 5 11 29 14 54 6 62 26 143 40 157 32 33 550 163 653 163 33 0
42 -6 96 -68 59 -68 67 -91 67 -187 1 -106 15 -97 23 15 3 41 13 93 22 115 22
52 91 144 115 153 36 14 373 -5 513 -28z m-603 -20 c-25 -32 -38 -40 -65 -40
-34 0 -48 11 -59 47 -7 23 6 27 112 31 l44 2 -32 -40z m903 -61 l38 -10 -35
-42 c-34 -42 -73 -58 -81 -34 -2 7 -6 34 -9 60 l-5 49 27 -7 c15 -3 44 -11 65
-16z m-53 -163 c0 -3 -4 -8 -10 -11 -5 -3 -10 -1 -10 4 0 6 5 11 10 11 6 0 10
-2 10 -4z m-2380 -202 c0 -4 -5 -23 -11 -43 -9 -30 -19 -41 -60 -59 -46 -20
-120 -25 -137 -8 -8 9 22 29 98 67 36 18 72 36 80 40 19 10 30 11 30 3z m25
-33 c3 -5 1 -12 -5 -16 -5 -3 -10 1 -10 9 0 18 6 21 15 7z m-245 -85 c0 -3 -4
-8 -10 -11 -5 -3 -10 -1 -10 4 0 6 5 11 10 11 6 0 10 -2 10 -4z m3477 -172
c-3 -3 -12 -4 -19 -1 -8 3 -5 6 6 6 11 1 17 -2 13 -5z m-186 -28 c25 -8 52
-10 60 -6 8 4 25 11 39 14 19 6 22 5 10 -3 -10 -7 -11 -14 -4 -18 11 -9 44
-75 44 -90 0 -9 27 -64 45 -93 21 -34 17 -140 -11 -233 -36 -127 -88 -179
-189 -192 -44 -6 -55 -3 -96 23 -61 39 -98 90 -126 171 l-22 66 1 -70 c0 -72
-14 -136 -37 -169 -13 -18 -17 -18 -92 -1 -142 30 -286 76 -346 108 l-59 32
-5 125 c-5 174 -1 163 -43 130 -14 -11 -31 -20 -39 -20 -9 0 -11 -8 -7 -25 4
-14 2 -25 -4 -25 -5 0 -10 7 -10 15 0 18 -14 19 -39 3 -17 -11 -17 -12 8 -36
14 -13 18 -19 9 -12 -10 7 -18 9 -18 5 0 -4 -7 -2 -15 5 -20 16 -19 0 1 -28 8
-12 20 -19 26 -16 7 4 8 2 4 -5 -4 -6 -2 -18 4 -26 7 -8 9 -15 5 -15 -16 0
-72 76 -121 164 -76 135 -75 133 -12 141 70 9 193 -17 225 -47 21 -20 24 -20
36 -5 23 31 137 104 182 117 53 15 111 0 213 -56 34 -19 68 -34 74 -34 6 0 39
27 75 60 l64 60 62 0 c34 0 83 -6 108 -14z m304 -208 c-21 -24 -43 -45 -48
-47 -16 -6 23 59 43 72 11 6 20 18 20 26 0 11 3 12 12 3 8 -8 2 -22 -27 -54z
m-1133 -30 c-7 -7 -12 -8 -12 -2 0 6 3 14 7 17 3 4 9 5 12 2 2 -3 -1 -11 -7
-17z m688 -388 c0 -5 -6 -7 -14 -4 -12 5 -16 -17 -19 -128 -3 -73 -5 -140 -5
-148 1 -92 4 -137 11 -133 4 2 7 -13 7 -35 0 -21 9 -83 20 -136 11 -53 18
-102 14 -108 -4 -5 0 -14 7 -19 12 -8 12 -11 -1 -19 -13 -8 -13 -10 2 -10 9 0
19 6 22 13 2 6 4 3 4 -8 -2 -39 2 -56 12 -50 5 3 9 -13 8 -40 0 -37 -6 -51
-29 -73 -16 -15 -29 -33 -29 -39 0 -7 -5 -13 -11 -13 -7 0 -9 9 -5 24 5 20 3
23 -14 19 -11 -3 -20 -14 -20 -24 0 -27 -14 -31 -33 -8 -9 10 -13 19 -9 19 9
0 -21 20 -31 20 -5 0 -5 -6 -1 -12 6 -10 4 -10 -8 0 -9 7 -14 21 -11 32 3 11
0 20 -6 20 -6 0 -11 7 -11 15 0 7 -6 18 -14 22 -9 5 -11 15 -5 28 4 11 8 14 8
8 1 -7 9 -13 19 -12 10 0 12 3 5 6 -10 3 -10 10 -2 24 5 11 7 23 4 28 -3 5 3
17 12 27 13 12 14 19 5 22 -6 2 -12 10 -12 18 0 9 5 12 12 8 8 -5 9 -2 5 10
-4 10 -1 43 7 74 8 32 18 83 21 115 4 32 12 57 19 57 6 0 5 4 -3 9 -8 6 -11
18 -8 32 3 13 7 101 8 194 l1 170 -24 3 c-24 3 -24 3 -9 50 l15 47 43 -43 c24
-24 43 -47 43 -52z m-1326 -108 c306 -200 642 -314 1002 -344 79 -6 142 -13
140 -15 -2 -2 -43 -10 -92 -18 -255 -42 -528 14 -803 162 -47 26 -88 49 -91
52 -3 4 -25 19 -50 35 -94 60 -190 138 -286 231 l-99 97 85 -65 c47 -36 134
-96 194 -135z m1173 -644 c-3 -8 -6 -5 -6 6 -1 11 2 17 5 13 3 -3 4 -12 1 -19z"/>
<path d="M1866 4005 c-3 -8 -1 -15 4 -15 13 0 22 18 11 24 -5 3 -11 -1 -15 -9z"/>
<path d="M5053 3583 c-9 -19 -10 -31 -1 -47 11 -20 11 -20 19 -1 5 12 6 1 2
-25 -7 -54 -13 -65 -13 -23 0 44 -24 61 -44 31 -9 -12 -16 -31 -16 -41 0 -11
-5 -15 -11 -11 -8 4 -9 -1 -4 -17 7 -20 6 -22 -7 -12 -20 17 -31 4 -13 -14 22
-21 18 -30 -11 -30 -18 0 -22 2 -13 8 7 4 10 11 6 15 -4 4 -17 -2 -30 -13 -12
-11 -29 -23 -37 -26 -9 -3 -10 -6 -2 -6 6 -1 12 -6 12 -12 0 -5 -4 -8 -9 -5
-5 4 -12 0 -14 -6 -4 -10 -8 -10 -15 1 -5 7 -15 12 -22 9 -8 -2 -5 -12 9 -30
16 -20 20 -36 16 -67 -3 -24 -1 -41 5 -41 5 0 10 6 10 13 1 17 47 49 55 37 3
-5 1 -10 -6 -10 -17 0 -49 -40 -49 -61 0 -13 12 -22 41 -29 55 -15 108 -5 162
31 39 25 46 36 66 102 14 42 21 87 18 103 -11 62 -32 134 -39 134 -5 0 -8 7
-8 15 0 8 -5 15 -11 15 -6 0 -8 9 -4 23 5 17 4 19 -4 7 -8 -11 -13 -12 -19 -3
-5 8 -11 3 -19 -14z m-3 -135 c0 -19 -2 -20 -10 -8 -13 19 -13 30 0 30 6 0 10
-10 10 -22z m-45 -38 c3 -5 1 -10 -4 -10 -6 0 -11 5 -11 10 0 6 2 10 4 10 3 0
8 -4 11 -10z m-75 -40 c8 -5 11 -10 5 -10 -5 0 -17 5 -25 10 -8 5 -10 10 -5
10 6 0 17 -5 25 -10z m-17 -42 c-4 -22 -3 -29 5 -24 7 4 12 16 12 27 0 10 4
19 8 19 5 0 9 -13 9 -30 0 -24 -5 -30 -23 -30 -25 0 -35 18 -27 49 9 34 23 24
16 -11z m-23 -48 c0 -5 -5 -10 -11 -10 -5 0 -7 5 -4 10 3 6 8 10 11 10 2 0 4
-4 4 -10z m40 -40 c0 -5 -5 -10 -11 -10 -5 0 -7 5 -4 10 3 6 8 10 11 10 2 0 4
-4 4 -10z"/>
<path d="M4595 3483 c-33 -41 -78 -89 -100 -107 -48 -40 -133 -86 -157 -86
-10 0 -18 -4 -18 -9 0 -5 -8 -8 -17 -6 -10 1 -12 0 -5 -2 7 -3 10 -9 7 -14 -3
-5 1 -6 9 -3 11 4 16 0 16 -10 0 -9 5 -16 10 -16 6 0 34 -11 63 -25 114 -55
199 -62 262 -21 26 17 31 30 43 111 7 50 -6 177 -20 191 -5 4 -8 15 -8 24 0 9
-6 23 -12 32 -11 14 -21 6 -73 -59z m70 -22 c-3 -6 -11 -11 -16 -11 -5 0 -4 6
3 14 14 16 24 13 13 -3z m-9 -70 c-19 -36 -36 -49 -29 -21 3 11 9 20 13 20 4
0 11 12 15 28 4 15 9 22 12 15 2 -6 -3 -25 -11 -42z m-165 -78 c-12 -20 -14
-14 -5 12 4 9 9 14 11 11 3 -2 0 -13 -6 -23z m-42 -9 c-10 -13 -10 -17 2 -25
11 -7 11 -9 -3 -9 -10 0 -18 5 -18 10 0 6 -7 10 -16 10 -14 0 -14 -3 -4 -15
10 -12 10 -15 -1 -17 -8 0 6 -4 31 -8 l45 -8 -45 2 c-37 1 -44 4 -42 19 4 22
-7 22 -24 0 -14 -21 -27 -13 -18 10 3 9 19 19 35 22 16 4 31 11 34 16 4 5 13
9 22 9 13 0 13 -3 2 -16z"/>
<path d="M4800 3339 c0 -9 8 -31 17 -50 13 -26 18 -30 21 -16 2 10 -6 32 -17
50 -12 19 -21 26 -21 16z"/>
<path d="M4780 2386 c0 -9 5 -16 10 -16 6 0 10 4 10 9 0 6 -4 13 -10 16 -5 3
-10 -1 -10 -9z"/>
<path d="M4725 2320 c3 -5 8 -10 11 -10 2 0 4 5 4 10 0 6 -5 10 -11 10 -5 0
-7 -4 -4 -10z"/>
<path d="M4890 2240 c0 -5 5 -10 10 -10 6 0 10 5 10 10 0 6 -4 10 -10 10 -5 0
-10 -4 -10 -10z"/>
<path d="M955 3459 c-44 -4 -111 -17 -150 -29 -77 -24 -187 -85 -223 -122
l-22 -25 10 -918 c7 -580 14 -923 21 -931 5 -6 32 -22 60 -34 172 -73 477 -67
717 14 l72 25 0 -34 c0 -31 5 -37 50 -60 135 -68 324 -50 370 35 14 26 2 54
-16 39 -19 -16 -19 -6 8 324 15 195 25 272 31 255 8 -21 2 -239 -9 -283 -11
-49 -22 -251 -13 -265 4 -8 9 -10 9 -5 8 151 40 545 45 558 6 14 20 17 75 17
37 0 81 -3 97 -6 l30 -6 18 -176 c10 -98 25 -247 34 -332 l16 -154 80 -29 c65
-22 91 -27 137 -23 46 5 64 2 92 -15 108 -63 333 -66 504 -5 25 9 42 11 42 5
0 -14 75 -45 126 -54 49 -7 118 9 142 33 14 14 20 50 30 182 7 91 15 182 18
203 l7 38 66 -3 66 -3 12 -110 c6 -60 17 -156 24 -211 l12 -101 46 -17 c25 -9
67 -16 94 -16 34 0 47 -4 47 -14 0 -25 120 -31 230 -12 225 39 383 168 419
344 17 82 14 105 -8 58 l-18 -39 -5 84 c-6 114 -39 181 -132 275 -50 50 -93
81 -146 107 -41 21 -66 35 -55 33 11 -2 38 -7 60 -10 38 -6 39 -6 20 9 -60 47
-255 73 -339 46 l-38 -13 5 -327 c3 -179 3 -321 1 -316 -3 8 -42 175 -155 670
-36 156 -39 163 -66 184 -25 20 -25 21 -4 21 38 0 18 24 -30 37 -84 22 -195
-11 -224 -67 -7 -14 -21 -65 -30 -113 -10 -48 -21 -87 -24 -87 -3 0 -20 4 -37
9 -25 7 -33 5 -43 -10 -9 -16 -15 -17 -32 -9 -27 15 -22 55 6 55 30 0 54 58
60 145 l5 75 -20 -55 -20 -55 3 65 c8 148 -54 263 -178 329 l-40 22 50 -5 c32
-4 45 -2 35 4 -8 5 -18 6 -22 4 -4 -3 -8 -1 -8 5 0 23 -110 43 -209 39 -83 -3
-106 -8 -168 -37 -39 -18 -82 -44 -95 -58 l-23 -25 2 -416 3 -417 -20 80 c-18
77 -250 1135 -250 1141 0 9 -49 48 -75 60 l-30 15 43 -3 c42 -4 43 -3 20 14
-28 21 -102 38 -167 38 -101 0 -206 -52 -240 -118 -11 -21 -34 -115 -51 -208
-38 -208 -38 -207 -58 -199 -10 3 -37 12 -60 18 -38 10 -45 9 -57 -6 -16 -22
-32 -22 -43 1 -13 24 -5 41 17 35 11 -3 24 5 35 22 22 34 53 156 59 231 4 56
4 57 -9 29 -7 -16 -18 -54 -24 -83 -7 -30 -13 -52 -15 -50 -1 2 2 47 8 101 18
170 -17 281 -125 393 -44 46 -84 76 -133 99 -73 36 -75 40 -12 26 59 -14 41 9
-28 36 -72 28 -184 40 -290 32z m148 -410 c81 -22 135 -100 121 -176 -15 -87
-72 -129 -195 -143 -46 -5 -90 -10 -96 -10 -7 0 -13 -7 -13 -15 0 -20 -36 -19
-44 1 -3 9 -6 82 -6 162 1 128 3 143 14 117 l12 -30 11 32 c21 58 109 86 196
62z m951 -430 c13 -31 46 -198 46 -231 0 -5 -17 -8 -39 -8 -73 0 -131 -12
-131 -27 0 -8 -7 -13 -17 -11 -22 4 -29 69 -14 120 l10 33 -2 -39 c-3 -52 20
-60 28 -9 4 21 15 70 27 108 34 122 62 140 92 64z m-467 -65 c-3 -3 -12 -4
-19 -1 -8 3 -5 6 6 6 11 1 17 -2 13 -5z m53 -14 c0 -13 -11 -13 -30 0 -12 8
-11 10 8 10 12 0 22 -4 22 -10z m277 -22 c-3 -8 -6 -5 -6 6 -1 11 2 17 5 13 3
-3 4 -12 1 -19z m929 -104 c91 -43 78 -173 -20 -203 -17 -5 -52 -12 -78 -16
-32 -4 -48 -11 -48 -21 0 -8 -6 -14 -13 -14 -30 0 -37 24 -36 135 0 86 3 105
11 88 13 -28 28 -30 28 -4 0 22 52 50 93 51 16 0 44 -7 63 -16z m-1539 -67
c167 -133 182 -313 38 -446 -88 -81 -203 -112 -324 -87 -73 15 -100 14 -71 -4
24 -15 5 -21 -29 -9 -17 6 -36 19 -41 29 -6 11 -10 118 -9 252 0 149 4 225 9
211 12 -28 30 -30 30 -3 0 18 7 20 69 20 89 0 162 14 225 44 28 13 53 25 56
25 3 0 24 -14 47 -32z m2150 -300 c7 -20 15 -58 19 -85 l6 -49 -48 -6 c-29 -3
-53 -12 -60 -22 -22 -30 -44 -11 -44 37 0 33 3 39 12 30 20 -20 27 -14 38 31
16 63 39 109 53 105 6 -3 17 -21 24 -41z m-271 6 c-3 -3 -13 -2 -23 2 -17 7
-17 8 2 15 19 7 34 -5 21 -17z m161 -75 c-3 -8 -6 -5 -6 6 -1 11 2 17 5 13 3
-3 4 -12 1 -19z m-371 -60 c40 -36 84 -118 84 -159 0 -14 -12 -50 -27 -80 -49
-96 -155 -145 -266 -122 -52 11 -66 4 -41 -21 8 -9 13 -16 9 -16 -12 0 -70 33
-77 44 -4 6 -7 88 -7 181 0 106 4 162 9 149 12 -30 30 -39 30 -16 0 17 10 21
73 26 40 4 90 16 112 26 55 25 59 25 101 -12z m1092 -115 c71 -34 103 -82 103
-156 0 -60 -20 -119 -54 -156 -26 -28 -113 -71 -144 -71 -14 0 -23 -6 -23 -15
0 -22 -27 -19 -40 4 -11 21 -15 421 -4 421 4 0 13 -8 20 -17 12 -17 13 -16 14
6 0 21 3 23 38 17 20 -4 61 -19 90 -33z m-3071 -19 c-3 -3 -12 -4 -19 -1 -8 3
-5 6 6 6 11 1 17 -2 13 -5z m2329 -304 c-7 -91 -18 -166 -24 -172 -9 -9 -12
-7 -12 7 0 37 21 300 27 335 5 31 6 33 13 13 5 -12 3 -93 -4 -183z"/>
<path d="M5215 1970 c-109 -27 -190 -84 -229 -162 -48 -95 -29 -210 45 -272
98 -83 233 -94 361 -30 89 45 158 139 158 216 l0 31 -20 -23 -20 -23 0 41 c0
71 -30 123 -95 163 -27 17 -28 19 -8 19 33 0 36 15 5 30 -35 16 -146 22 -197
10z m96 -151 c18 -18 21 -30 17 -90 -3 -59 -8 -72 -33 -99 -21 -21 -38 -30
-62 -30 -26 0 -33 -4 -33 -19 0 -15 -5 -18 -21 -14 -39 10 -65 116 -38 153 9
13 10 13 6 -2 -3 -9 0 -22 8 -28 11 -10 15 -6 21 17 10 44 53 113 77 123 32
13 35 12 58 -11z"/>
<path d="M4676 1871 c-22 -3 -41 -12 -44 -20 -3 -8 0 -11 6 -7 17 11 123 16
117 5 -4 -5 -1 -9 4 -9 6 0 11 5 11 11 0 5 5 7 10 4 6 -3 10 -2 10 3 0 21 -36
25 -114 13z"/>
<path d="M4556 1813 c-6 -14 -5 -15 5 -6 7 7 10 15 7 18 -3 3 -9 -2 -12 -12z"/>
<path d="M4847 1716 c-4 -27 -7 -63 -7 -80 l-1 -31 -13 24 c-10 18 -15 20 -19
10 -3 -9 -6 -6 -6 8 -1 12 -6 25 -11 28 -6 4 -10 12 -9 18 4 22 -13 47 -31 47
-29 0 -33 -18 -15 -57 13 -27 16 -53 13 -104 -6 -83 -31 -130 -76 -144 -18 -5
-32 -15 -32 -22 0 -21 -28 -15 -44 10 -21 33 -29 82 -20 130 l7 42 12 -35 12
-34 12 49 c7 28 22 68 34 90 20 35 21 42 8 57 -13 15 -17 15 -43 2 -15 -8 -30
-24 -32 -37 -3 -12 -7 -31 -9 -42 -3 -11 -5 -4 -6 15 -1 30 -4 35 -26 35 -22
0 -25 -4 -25 -32 0 -60 -19 -34 -22 30 l-3 62 -21 -40 c-104 -196 0 -436 188
-435 132 1 249 120 264 272 l6 53 -21 -30 -21 -30 -2 25 c-1 14 0 45 0 70 1
26 -6 62 -16 85 l-19 40 -6 -49z"/>
<path d="M520 990 l0 -90 45 0 c41 0 45 2 45 25 0 20 -5 25 -25 25 -24 0 -25
2 -25 65 0 58 -2 65 -20 65 -19 0 -20 -7 -20 -90z"/>
<path d="M694 1068 c-4 -6 0 -16 9 -23 21 -15 23 -81 2 -101 -24 -24 -7 -44
36 -44 48 0 61 22 30 51 -25 24 -30 89 -6 89 8 0 15 9 15 20 0 17 -7 20 -39
20 -22 0 -43 -5 -47 -12z"/>
<path d="M870 990 c0 -89 0 -90 25 -90 20 0 25 5 26 28 l1 27 10 -28 c7 -21
16 -27 32 -25 19 3 21 10 24 91 l3 87 -26 0 c-23 0 -25 -4 -26 -42 l-1 -43
-15 43 c-10 29 -20 42 -34 42 -17 0 -19 -8 -19 -90z"/>
<path d="M1086 1051 c-39 -75 1 -177 55 -142 12 7 19 7 19 1 0 -5 7 -10 15
-10 11 0 15 12 15 50 0 49 -1 50 -29 50 -36 0 -50 -19 -27 -36 12 -8 14 -14 6
-19 -19 -12 -32 10 -28 46 2 26 8 34 28 39 39 9 34 44 -7 48 -27 3 -34 -2 -47
-27z"/>
<path d="M1272 993 l3 -88 41 -3 c31 -2 43 1 48 13 9 23 -1 35 -30 35 -30 0
-33 29 -4 37 11 3 20 10 20 15 0 5 -9 12 -20 15 -29 8 -25 21 7 25 17 2 29 10
31 21 3 14 -4 17 -48 17 l-51 0 3 -87z"/>
<path d="M1463 1074 c-19 -8 -18 -170 1 -177 16 -6 36 11 37 32 0 11 4 8 11
-6 12 -26 46 -31 54 -9 3 8 -2 25 -10 38 -13 20 -14 29 -4 56 17 43 2 66 -43
69 -19 1 -40 0 -46 -3z m57 -39 c0 -8 -7 -15 -15 -15 -8 0 -15 7 -15 15 0 8 7
15 15 15 8 0 15 -7 15 -15z"/>
<path d="M1650 1060 c0 -11 7 -20 15 -20 11 0 15 -12 15 -45 0 -34 -4 -45 -16
-45 -10 0 -14 -7 -12 -22 2 -19 10 -24 46 -26 39 -3 42 -1 42 22 0 16 -6 26
-15 26 -11 0 -15 12 -15 45 0 33 4 45 15 45 8 0 15 9 15 20 0 17 -7 20 -45 20
-38 0 -45 -3 -45 -20z"/>
<path d="M1830 989 l0 -90 43 3 c35 2 43 7 45 26 3 19 -1 22 -27 22 -36 0 -43
25 -11 35 11 3 20 13 20 21 0 8 -9 14 -20 14 -30 0 -24 18 7 22 17 2 29 10 31
21 3 14 -4 17 -42 17 l-46 0 0 -91z"/>
<path d="M2159 1075 c0 -3 0 -34 0 -70 0 -116 -4 -107 44 -103 34 2 42 7 42
23 0 14 -8 21 -27 23 -32 4 -37 28 -8 37 11 3 20 11 20 17 0 5 -9 12 -20 15
-29 8 -25 21 7 25 17 2 29 10 31 21 3 14 -4 17 -42 17 -25 0 -46 -2 -47 -5z"/>
<path d="M2567 1073 c-4 -3 -7 -44 -7 -90 0 -83 0 -83 26 -83 24 0 26 3 22 36
-3 28 0 38 16 46 12 6 24 16 28 22 14 20 8 64 -8 70 -21 8 -69 8 -77 -1z m58
-43 c-3 -5 -10 -10 -16 -10 -5 0 -9 5 -9 10 0 6 7 10 16 10 8 0 12 -4 9 -10z"/>
<path d="M2762 1071 c-20 -12 -12 -176 8 -176 9 0 17 12 20 29 l5 30 12 -27
c14 -29 34 -35 51 -14 9 10 7 19 -5 37 -13 19 -14 28 -4 56 17 46 1 74 -42 74
-18 0 -38 -4 -45 -9z m56 -39 c2 -7 -3 -12 -12 -12 -9 0 -16 7 -16 16 0 17 22
14 28 -4z"/>
<path d="M2984 1072 c-54 -36 -39 -179 18 -170 50 7 83 120 48 162 -13 17 -47
21 -66 8z m34 -79 c-3 -42 -28 -59 -28 -20 0 32 9 57 22 57 5 0 8 -17 6 -37z"/>
<path d="M3150 990 c0 -84 1 -90 20 -90 32 0 67 28 79 62 19 55 -23 118 -78
118 -20 0 -21 -6 -21 -90z m60 25 c15 -19 5 -65 -15 -65 -11 0 -15 11 -15 40
0 42 9 50 30 25z"/>
<path d="M3340 1016 c0 -89 12 -118 47 -114 37 4 53 39 53 116 0 48 -3 62 -15
62 -11 0 -15 -11 -15 -42 0 -24 -3 -53 -6 -65 -11 -40 -24 -14 -24 48 0 52 -2
59 -20 59 -18 0 -20 -7 -20 -64z"/>
<path d="M3522 1058 c2 -15 9 -22 21 -22 15 2 17 -8 17 -67 0 -62 2 -69 20
-69 18 0 20 7 20 69 0 60 2 69 20 74 11 3 20 12 20 21 0 13 -12 16 -61 16 -57
0 -60 -1 -57 -22z"/>
<path d="M3735 1050 c-31 -59 -10 -150 35 -150 31 0 60 47 60 97 0 60 -14 83
-50 83 -23 0 -33 -7 -45 -30z m53 -57 c-3 -42 -28 -59 -28 -20 0 32 9 57 22
57 5 0 8 -17 6 -37z"/>
<path d="M3948 1066 c-29 -21 -40 -63 -22 -81 9 -8 20 -15 25 -15 5 0 9 -5 9
-11 0 -6 -9 -9 -19 -6 -22 5 -34 -14 -25 -38 8 -21 57 -19 77 3 24 27 21 53
-10 77 -28 23 -25 45 8 45 12 0 19 7 19 20 0 23 -35 27 -62 6z"/>
<path d="M4242 993 l3 -88 45 0 c39 0 45 3 48 23 3 19 -1 22 -27 22 -36 0 -43
25 -11 35 11 3 20 13 20 21 0 8 -9 14 -20 14 -30 0 -24 18 7 22 17 2 29 10 31
21 3 14 -4 17 -48 17 l-52 0 4 -87z"/>
<path d="M4441 1071 c-8 -5 -15 -37 -18 -88 -5 -69 -3 -81 12 -87 24 -9 35 1
36 32 l1 27 10 -27 c10 -29 23 -34 48 -18 13 8 13 13 -2 40 -16 28 -16 33 -3
54 16 23 11 54 -9 68 -15 10 -58 10 -75 -1z m54 -31 c3 -6 -1 -13 -10 -16 -19
-8 -30 0 -20 15 8 14 22 14 30 1z"/>
<path d="M4643 1053 c-40 -61 -8 -165 46 -148 42 13 67 107 41 156 -16 30 -65
25 -87 -8z m57 -47 c0 -31 -10 -56 -21 -56 -10 0 -12 63 -2 73 13 14 23 6 23
-17z"/>
<path d="M4820 1059 c0 -12 8 -23 19 -26 17 -4 19 -13 18 -66 -2 -57 0 -62 21
-65 21 -3 22 0 22 67 0 56 3 71 15 71 8 0 15 9 15 20 0 18 -7 20 -55 20 -49 0
-55 -2 -55 -21z"/>
<path d="M5020 1060 c0 -11 5 -20 10 -20 6 0 10 -20 10 -45 0 -25 -4 -45 -10
-45 -5 0 -10 -11 -10 -25 0 -23 4 -25 40 -25 46 0 65 24 37 45 -19 13 -24 95
-7 95 6 0 10 9 10 20 0 17 -7 20 -40 20 -33 0 -40 -3 -40 -20z"/>
<path d="M5211 1054 c-37 -47 -21 -139 26 -150 25 -7 48 7 64 39 16 29 -5 46
-29 24 -10 -9 -22 -17 -26 -17 -14 0 -23 45 -13 68 10 22 37 31 37 12 0 -13
27 -13 35 0 3 5 0 18 -7 30 -18 29 -62 26 -87 -6z"/>
<path d="M5415 1057 c-24 -37 -28 -80 -11 -120 29 -70 91 -39 103 52 10 76
-55 124 -92 68z m50 -76 c-4 -17 -11 -31 -16 -31 -16 0 -20 25 -9 55 14 38 35
19 25 -24z"/>
<path d="M5615 1056 c-30 -30 -32 -61 -5 -78 11 -7 20 -17 20 -22 0 -4 -9 -6
-20 -3 -16 4 -20 0 -20 -19 0 -46 71 -44 93 2 10 24 9 29 -17 49 -31 25 -30
58 1 53 12 -2 18 3 18 17 0 31 -40 31 -70 1z"/>
</g>
</svg>
